<?xml version="1.0" encoding="UTF-8" standalone="no"?>
<!-- Created with Inkscape (http://www.inkscape.org/) -->

<svg
   version="1.1"
   id="svg2"
   width="2364.4668"
   height="489.89334"
   viewBox="0 0 2364.4668 489.89334"
   sodipodi:docname="Text Vector (1).eps"
   xmlns:inkscape="http://www.inkscape.org/namespaces/inkscape"
   xmlns:sodipodi="http://sodipodi.sourceforge.net/DTD/sodipodi-0.dtd"
   xmlns="http://www.w3.org/2000/svg"
   xmlns:svg="http://www.w3.org/2000/svg">
  <defs
     id="defs6" />
  <sodipodi:namedview
     id="namedview4"
     pagecolor="#ffffff"
     bordercolor="#000000"
     borderopacity="0.25"
     inkscape:showpageshadow="2"
     inkscape:pageopacity="0.0"
     inkscape:pagecheckerboard="0"
     inkscape:deskcolor="#d1d1d1" />
  <g
     id="g8"
     inkscape:groupmode="layer"
     inkscape:label="ink_ext_XXXXXX"
     transform="matrix(1.3333333,0,0,-1.3333333,0,489.89333)">
    <g
       id="g10"
       transform="scale(0.1)">
      <path
         d="M 8.60156,3593.26 C 75.0195,3461.95 141.559,3330.7 207.828,3199.31 348.469,2920.5 489.41,2641.83 628.855,2362.42 c 14.575,-29.21 30.559,-41.02 64.297,-40.48 133.211,2.15 266.477,0.82 399.728,0.98 12.68,0.02 25.35,1.43 43.4,2.52 -9.47,20.37 -16.6,36.72 -24.55,52.66 -160.062,320.99 -320.976,641.57 -479.996,963.08 -64.5,130.41 -149.226,239.5 -287.222,298.83 -9.067,3.9 -16.164,12.36 -33.016,25.68 316.496,0 621.082,0 934.094,0 -8.34,-15.05 -11.21,-26.35 -18.48,-32.33 -43.39,-35.74 -63.85,-83.83 -59.18,-136.74 6.21,-70.41 7.66,-146.51 36.07,-208.87 245.12,-538.08 495.84,-1073.62 745,-1609.87 3.43,-7.38 8.24,-14.14 17.08,-29.09 89.72,192.74 176.62,379.42 267.51,574.67 -55.2,0 -104.04,0 -152.87,0 -78.28,0 -156.71,2.88 -234.8,-1.09 -46.45,-2.37 -75.79,9.62 -87.32,56.49 -3.07,12.47 -10.46,23.89 -19.57,43.96 23.88,0 42.72,0 61.56,0 146.57,0 293.15,0.71 439.7,-0.63 27.31,-0.25 41.21,7.51 51.88,33.46 133.27,324.06 268.7,647.24 400.74,971.8 17.74,43.6 25.37,93.16 28.24,140.52 5.58,92.33 -29.62,137.87 -117.58,166.22 -18.06,5.82 -36.03,11.94 -52.24,29.16 305.85,0 611.71,0 917.51,0 -0.06,-0.61 0.53,-5.92 -0.81,-6.45 -190.18,-76.42 -303.87,-230.9 -389.88,-403.32 -148.99,-298.65 -284.67,-603.89 -428.9,-904.95 -155.72,-325.06 -315.49,-648.17 -472.22,-972.74 -88.03,-182.3 -173.46,-365.85 -260.19,-548.769 -3.95,-8.34 -9.18,-16.07 -16.92,-29.473 -46.31,89.051 -91,171.801 -132.83,255.962 -187.72,377.69 -374.43,755.89 -562.6,1133.36 -7.46,14.96 -25.86,34.63 -39.45,34.85 -151.4,2.49 -302.856,1.57 -462.138,1.57 9.477,-20.92 16.075,-37.01 23.875,-52.5 290.833,-577.04 581.953,-1153.93 872.043,-1731.339 12.45,-24.77 26.52,-35.153 53.34,-31.922 14.78,1.781 29.95,0.32 44.94,0.32 5141.67,0 10283.4,0 15425,0 91.6,0 183.1,0 274.7,0 0,-2.078 0,-4.16 0,-6.238 C 12067.5,267.801 6738.21,133.891 1410.07,0 937.488,1203.01 468.746,2396.24 0,3589.46 c 2.86719,1.27 5.73438,2.54 8.60156,3.8"
         style="fill:#231f20;fill-opacity:1;fill-rule:nonzero;stroke:none"
         id="path12" />
      <path
         d="m 6245.07,2223.48 c -410.64,0 -816.76,0 -1223.9,0 -14.6,31.75 -28.31,61.58 -44.9,97.67 425.34,0 845.28,0 1276.79,0 0,87.23 0.46,169.62 -0.09,252.01 -1.58,237.59 0.55,475.3 -7.08,712.7 -3.97,123.59 -56.66,231.14 -154.9,311.98 -22.82,18.78 -47,35.92 -80.52,61.4 74.42,0 138.14,0 201.87,0 94.94,0 189.9,-1.36 284.8,0.74 32.8,0.72 55.14,-9.81 77.76,-33.05 660.16,-678.48 1321.01,-1356.3 1981.67,-2034.3 16.95,-17.39 33.01,-35.66 57.68,-62.41 0,238.8 0,463.41 0,693.24 -76.27,0 -150.75,0 -225.23,0 -78.28,0 -157.37,6.97 -234.63,-1.87 -86.24,-9.86 -134.75,34.48 -183.86,100.5 217.04,0 428.93,0 642.05,0 0,119.26 3.01,233.43 -0.65,347.39 -6.52,202.59 -15.02,405.16 -26.61,607.52 -8.81,153.75 -41.55,297.88 -196.24,378.99 277.98,0 555.97,0 834.48,0 -0.68,-6.33 0.03,-11.35 -1.49,-12.16 -151.16,-80.27 -190.9,-224.51 -205.4,-375.95 -14.71,-153.54 -19.37,-308.42 -20.61,-462.78 -4.43,-550.08 -6.22,-1100.19 -7.23,-1650.3 -0.16,-89.57 9.03,-179.128 13.06,-268.73 1.39,-31.05 0.22,-62.211 0.22,-98.601 -87.94,0 -172.43,-1.149 -256.82,1.172 -13.54,0.379 -28.68,14.23 -39.66,25.25 -457.18,458.119 -914.13,916.459 -1370.29,1375.599 -24.05,24.21 -47.43,35.12 -82.16,34.79 -186.32,-1.75 -372.66,-0.82 -562.44,-0.82 0,33.34 0,63.69 0,99.07 166.51,0 331.98,0 500.32,0 -191.23,188.27 -378.49,372.63 -565.16,556.4 0,-9.97 -0.12,-27.38 0.02,-44.78 3.56,-423.76 5.13,-847.56 11.79,-1271.28 2.46,-155.93 12.88,-312.05 27.29,-467.38 11.49,-123.861 83.96,-209.681 195.25,-263.99 14.61,-7.129 26.46,-19.918 39.59,-30.09 -2.53,-3.969 -5.06,-7.941 -7.6,-11.898 -292.59,0 -585.19,0 -877.79,0 -3,3.359 -6,6.73 -9,10.09 12.62,12.269 23.24,28.257 38.16,36.207 102.69,54.64 176.51,132.613 191.75,250.931 9.08,70.55 7.33,142.68 7.82,214.11 2.07,299.15 3.14,598.3 4.47,897.45 0.03,6.38 -1.26,12.77 -2.58,25.18"
         style="fill:#231f20;fill-opacity:1;fill-rule:nonzero;stroke:none"
         id="path14" />
      <path
         d="m 14861.1,3648.75 c -42.1,-31.93 -85.9,-61.89 -125.9,-96.21 -75.3,-64.51 -141.1,-136.71 -166.6,-236.48 -12.6,-49.54 -10.5,-96.44 12.4,-144.67 311.9,-656.1 623.8,-1312.24 933,-1969.64 88.2,-187.69 223.5,-318.758 421.4,-384.379 12.4,-4.129 23.5,-12.242 31.8,-27.32 -269.9,0 -539.8,0 -815,0 5,8.578 7,14.64 11.1,18.449 74,69.352 76.8,151.852 38.4,237.42 -170.5,379.55 -343.2,758.12 -513.6,1137.73 -14.9,33.11 -34,40.9 -67.7,40.55 -159.8,-1.67 -319.6,-0.74 -486.7,-0.74 11.9,29.7 18.9,57.16 33.7,79.5 7.5,11.38 29,18.85 44.3,19.02 133,1.45 266.1,0.84 408.4,0.84 -91.7,193.34 -180.7,380.79 -273.8,577.06 -10.7,-22.9 -17.9,-37.29 -24.4,-52.02 -132.6,-303.75 -266.1,-607.14 -397.5,-911.44 -110.3,-255.61 -217,-512.78 -327.7,-768.23 -44,-101.5 -41.1,-191.221 40.3,-274.018 26.3,-26.77 43.2,-62.723 69.2,-101.742 -369.6,0 -723.3,0 -1088.1,0 14.2,12.109 22.1,22.859 32.7,27.222 163.1,67.387 267.7,189.888 339.2,347.458 152.1,335.25 307.1,669.24 460.8,1003.78 6.9,14.84 12.8,30.08 21.6,50.92 -411,0 -817.6,0 -1228.2,0 0,35.08 0,65.33 0,101.01 20.6,0 40.2,0 59.7,0 384.7,0 769.4,0.8 1154.1,-1.06 45.5,-0.22 68.6,11.58 88.4,55.08 188.2,413.63 379.7,825.74 568.7,1238.97 15.4,33.71 33.3,44.78 70.4,44.42 208.2,-2.06 416.3,-0.99 624.5,-0.99 16,0 32,0 48,0 1,-3.5 2.1,-6.99 3.1,-10.49"
         style="fill:#231f20;fill-opacity:1;fill-rule:nonzero;stroke:none"
         id="path16" />
      <path
         d="m 4780.89,3655.36 c -26.42,-17.91 -42.2,-25.75 -54.4,-37.34 -69.48,-66.03 -145.83,-126.82 -204.93,-201.2 -64.59,-81.3 -70.84,-173.61 -22.37,-274.7 307.65,-641.67 613,-1284.45 914.97,-1928.79 90.35,-192.79 225.03,-329.861 428.97,-396.541 11.59,-3.789 21.97,-11.277 30.66,-25.41 -269.8,0 -539.61,0 -812.26,0 1.56,4.473 1.86,11.601 5.59,15.062 77.89,72.258 77.18,157.071 37.81,246.329 -107.06,242.77 -214.3,485.47 -323.39,727.33 -62,137.47 -128.71,272.83 -191.07,410.14 -12.62,27.77 -28.98,33.92 -56.79,33.75 -171.54,-1.06 -343.07,-0.56 -514.61,-0.47 -11.43,0.01 -22.85,0.94 -40.57,1.71 12.99,28.52 21.46,55.77 37.16,77.94 7.99,11.28 28.92,18.66 44.09,18.82 136.55,1.42 273.12,0.83 409.68,0.83 16.15,0 32.29,0 56.45,0 -91.79,193.41 -180.33,379.98 -274.06,577.47 -17.35,-30.79 -31.89,-53.31 -43.28,-77.32 -313.48,-660.96 -626.92,-1321.95 -939.01,-1983.56 -16.58,-35.168 -33.75,-46.008 -74.16,-45.828 -199.69,0.867 -399.41,-3.672 -599.12,-6.242 -17.97,-0.238 -35.95,-0.039 -69.83,-0.039 18.89,18.781 26.06,31.168 36.57,35.558 161.51,67.493 263.03,190.831 333.67,346.361 151.59,333.72 305.66,666.33 458.59,999.44 7.43,16.2 13.76,32.9 22.54,54.03 -235.6,0 -466.4,0 -697.95,0 20.01,91.25 30.59,100.13 115.97,100.13 209.72,0 419.45,0 630.17,0 121.43,264.11 241.77,526.37 362.57,788.43 79.15,171.72 159.29,342.98 238.03,514.89 9.87,21.54 19.41,33.9 46.5,33.75 224.82,-1.21 449.66,-0.71 674.48,-0.84 5.84,-0.01 11.67,-1.25 33.33,-3.69"
         style="fill:#231f20;fill-opacity:1;fill-rule:nonzero;stroke:none"
         id="path18" />
      <path
         d="m 15115.2,2223.46 c -14.1,31.69 -27.4,61.68 -43.3,97.57 420,0 834.9,0 1264.1,0 -22.6,18.16 -34.7,27.52 -46.4,37.44 -63.4,53.77 -131,103.33 -189.1,162.3 -242.9,246.7 -248.1,595.37 -16.7,853.53 162.3,181.22 372.2,259.85 608.2,285.18 183.3,19.66 361,-19.62 540.5,-43.38 42.7,-5.66 87.6,4.88 131.5,8.4 62.5,5 124.8,13.18 187.3,14.47 32.3,0.67 55.4,-19.65 58.3,-56.13 10.7,-139.11 21.7,-278.2 32.8,-417.28 3.8,-47.37 -0.5,-92.51 -51.7,-112.52 -52.6,-20.55 -104,-11.38 -143,29.39 -34.3,35.78 -64.6,76.05 -92.4,117.16 -137.2,202.29 -417.5,319.3 -657.7,272.84 -196.3,-37.94 -341,-208.81 -327,-387.74 9.2,-117.46 62.2,-215.7 153.2,-286.89 132.1,-103.34 269.1,-200.66 406.8,-296.58 150,-104.51 305.3,-201.59 454,-307.83 61.7,-44.05 115.9,-100.14 167.3,-156.47 288.7,-316.75 198,-702.35 -27.6,-933.64 -157.1,-161.081 -354.4,-244.089 -571.1,-285.53 -280.4,-53.621 -556.4,-24.348 -829,52.152 -49.7,13.918 -100,25.52 -149.6,39.547 -80.1,22.633 -128.5,73.942 -138,158.021 -12,105.35 -26.4,210.58 -32.7,316.29 -1.8,31.44 13.7,69.09 32.8,95.56 46.7,64.53 142.1,60.29 185.3,-6.06 27.1,-41.67 50.7,-85.93 72.7,-130.54 41.6,-84.08 99.7,-153.29 179.2,-203.11 148.8,-93.24 305.4,-164.829 486.7,-154.77 130.4,7.23 247.2,53.76 345.8,139.4 183.3,159.06 205.6,430.79 39.5,626.62 -77.3,91.17 -175,167.82 -272.8,238.27 -111.7,80.53 -233.1,147.81 -351.8,218.38 -19.7,11.76 -47,15.26 -70.8,15.31 -424.7,0.87 -849.5,0.64 -1274.2,0.64 -19.9,0 -39.8,0 -61.1,0"
         style="fill:#231f20;fill-opacity:1;fill-rule:nonzero;stroke:none"
         id="path20" />
      <path
         d="m 12434.5,790.98 c -342.5,0 -680.3,0 -1018,0 -1.5,3.559 -3,7.122 -4.5,10.68 14.2,8.621 28.1,17.789 42.7,25.781 125.7,68.981 191.9,170.161 191.8,318.059 -0.5,338.95 4.8,677.91 7.8,1016.86 0.2,18.09 0,36.18 0,59.9 -476.3,0 -949.8,0 -1426,0 0,34.78 0,63.98 0,98.91 473.2,0 946.7,0 1418.7,0 0,378.64 0,751.57 0,1121.93 -11.1,5.74 -15.3,9.84 -19.5,9.86 -231.6,1.38 -462.8,-3.77 -690.3,-52.6 -106,-22.75 -197.7,-76.23 -282.3,-142.57 -60.4,-47.29 -124.5,-85.14 -205.7,-66.74 -25.1,5.7 -48.9,17.49 -83.6,30.34 26.4,38.85 48.7,70.54 69.8,103.03 61.4,94.44 126.5,186.85 181.3,284.97 22.6,40.56 45,51.41 87.7,50.61 364.3,-6.82 728.7,-14.76 1093,-16.23 264.7,-1.06 529.4,8.76 794.1,10.83 261.4,2.04 522.8,0.44 790.1,0.44 -9.8,-21.37 -18.9,-43.11 -29.4,-64.23 -56.5,-114.32 -111.5,-229.4 -170.7,-342.31 -26.7,-50.77 -82.3,-51.81 -131.1,-55.32 -42.3,-3.03 -73.8,18.84 -85.7,61.45 -8,28.68 -13.4,58.11 -19.9,87.19 -16,70.25 -57.8,107.79 -128.8,108.7 -191.4,2.44 -382.9,2.11 -574.4,4.99 -36.5,0.55 -45.9,-15.41 -47.3,-46.75 -10.8,-242.17 -31.6,-484.32 -31.3,-726.45 0.4,-445.21 12.6,-890.41 21.4,-1335.59 1.5,-81.25 7.7,-162.59 15.8,-243.49 12.9,-129.55 82.5,-221.078 197.6,-279.808 10.3,-5.25 20.3,-11.172 30,-17.453 2.2,-1.457 2.6,-5.668 6.7,-14.989"
         style="fill:#231f20;fill-opacity:1;fill-rule:nonzero;stroke:none"
         id="path22" />
      <path
         d="m 9648.12,2321.86 c -5.6,198.9 -9.34,389.77 -16.9,580.47 -5.25,132.69 -13.75,265.33 -24.46,397.7 -11.41,140.96 -73.68,253.2 -198.54,326.75 -8.95,5.27 -15.71,14.25 -30.99,28.49 344.63,0 678.97,0 1018.97,0 -5.9,-10 -8.2,-19.45 -13.7,-22.07 -132.9,-63.49 -183.7,-184.27 -195.8,-315.62 -19.6,-212.94 -30.6,-427.46 -30.2,-641.29 0.8,-433.62 10.9,-867.24 19,-1300.83 1.6,-89.55 9,-179.15 17.2,-268.41 11.7,-127.878 80.3,-218.37 192.3,-278.21 14.5,-7.738 28.3,-16.918 42.3,-25.438 -1.4,-3.89 -2.9,-7.793 -4.3,-11.683 -337.9,0 -675.83,0 -1027.76,0 20.18,16.082 31.14,27.91 44.6,35.043 132.33,70.129 204.5,174.788 198.32,328.998 -2.59,64.6 4.22,129.52 4.57,194.31 1.47,279.18 2.15,558.37 3.02,837.55 0.04,9.76 -0.92,19.51 -1.68,34.07 -185.34,0 -369.31,0 -557.59,0 0,35 0,65.26 0,100.17 184.51,0 368.65,0 561.64,0"
         style="fill:#231f20;fill-opacity:1;fill-rule:nonzero;stroke:none"
         id="path24" />
      <path
         d="m 1925.08,3047.17 c 50.9,-0.91 94.77,38.73 96.82,87.48 2.33,55.55 -39.56,99.09 -95.34,99.08 -51.91,0 -92.07,-38.64 -93.52,-89.98 -1.52,-53.76 38.37,-95.62 92.04,-96.58 z m 19.32,-636.59 c -169.84,368.51 -333.86,724.37 -503.65,1092.76 68.95,-32.81 124.42,-57.75 178.19,-85.89 12.65,-6.62 21.21,-23.16 28.78,-36.73 8.76,-15.72 12.32,-34.44 21.69,-49.68 28.18,-45.88 73.22,-61.75 114.22,-42.29 41.22,19.56 65.98,70.14 37.61,113.57 -46.3,70.87 -12.89,117.13 29.01,167.98 26.04,31.61 49.07,65.68 77.35,103.9 49.11,-67.84 94.5,-130.56 139.32,-192.49 -13.89,-31.54 -29.33,-60.64 -39.63,-91.45 -13.88,-41.51 1.12,-75.79 37.8,-98.12 38.61,-23.51 73.93,-12.12 103.49,18.29 11.35,11.68 25.81,26.39 27.07,40.74 5.27,60.3 52.53,74.64 95.85,94.6 40,18.43 79.79,37.32 119.45,55.9 C 2256.2,3139.77 2102.8,2781.02 1944.4,2410.58"
         style="fill:#231f20;fill-opacity:1;fill-rule:nonzero;stroke:none"
         id="path26" />
    </g>
  </g>
</svg>
